<?xml version="1.0" encoding="UTF-8" standalone="no"?>
<!-- Created with Inkscape (http://www.inkscape.org/) -->

<svg
   width="78.849373mm"
   height="43.997635mm"
   viewBox="0 0 78.849373 43.997635"
   version="1.1"
   id="svg5"
   inkscape:version="1.1.2 (b8e25be833, 2022-02-05)"
   sodipodi:docname="Logo 1.2.svg"
   xmlns:inkscape="http://www.inkscape.org/namespaces/inkscape"
   xmlns:sodipodi="http://sodipodi.sourceforge.net/DTD/sodipodi-0.dtd"
   xmlns="http://www.w3.org/2000/svg"
   xmlns:svg="http://www.w3.org/2000/svg">
  <sodipodi:namedview
     id="namedview7"
     pagecolor="#ffffff"
     bordercolor="#666666"
     borderopacity="1.0"
     inkscape:pageshadow="2"
     inkscape:pageopacity="0.0"
     inkscape:pagecheckerboard="0"
     inkscape:document-units="mm"
     showgrid="false"
     inkscape:zoom="0.90583672"
     inkscape:cx="339.46515"
     inkscape:cy="168.35264"
     inkscape:window-width="1511"
     inkscape:window-height="970"
     inkscape:window-x="443"
     inkscape:window-y="0"
     inkscape:window-maximized="0"
     inkscape:current-layer="layer1"
     showguides="true">
    <inkscape:grid
       type="xygrid"
       id="grid31519"
       originx="-18.5008"
       originy="-22.744256" />
  </sodipodi:namedview>
  <defs
     id="defs2" />
  <g
     inkscape:label="Layer 1"
     inkscape:groupmode="layer"
     id="layer1"
     transform="translate(-18.500799,-22.744256)">
    <path
       id="path1332"
       style="fill:#f5a622;fill-opacity:1;stroke-width:0.264583"
       d="m 49.292908,22.744519 c -0.002,3.44e-4 -0.006,0.0026 -0.009,0.0036 0.005,0.001 0.01,0.0016 0.0145,0.0026 0.002,-0.0054 -1.8e-4,-0.0072 -0.006,-0.0062 z m 23.221188,11.980663 c -5.18917,0.03235 -5.29297,0.337069 -6.925118,1.700671 -0.614187,0.51314 -1.744421,1.220136 -2.511458,1.570963 -1.722978,0.788112 -2.239645,1.492004 -2.239645,3.049945 0,1.569328 0.443847,2.153822 2.304755,3.033924 0.842257,0.398327 2.067458,1.1098 2.722295,1.580782 2.397785,1.724557 2.477515,1.735294 12.801218,1.735294 5.14315,0 9.992693,0.118729 10.776537,0.263548 1.846951,0.341252 2.880435,1.381112 2.880435,2.898532 0,2.617991 -1.100284,3.305066 -5.020343,3.135725 -2.240325,-0.09678 -2.803942,-0.230923 -5.07253,-1.208193 -3.861369,-1.663401 -4.070656,-1.691002 -12.137171,-1.599904 -6.578034,0.07428 -7.340198,0.129265 -7.998435,0.575675 -1.413181,0.958411 -0.983834,1.577727 2.315098,3.340365 1.164154,0.622019 2.642435,1.413007 3.285562,1.757516 0,0 0.139276,0.138854 2.009182,0.608064 1.869905,0.469209 9.400912,0.01825 9.400912,0.01825 11.448964,0 11.383384,0.0085 13.838872,-1.845366 0.787104,-0.59427 2.070948,-1.404437 2.852522,-1.800407 0,0 0.904333,-0.23267 1.227466,-0.758578 0.323133,-0.525907 0.232354,-2.05883 0.232354,-2.05883 0,0 0.08745,-1.299975 -0.27108,-1.904447 -0.358529,-0.604472 -1.615587,-1.229204 -1.615587,-1.229204 -1.016124,-0.555429 -2.087678,-1.223602 -2.381235,-1.484661 -0.29356,-0.261062 -1.009544,-0.761635 -1.591621,-1.112595 -1.046444,-0.630949 -1.154494,-0.639685 -9.586956,-0.770495 l -8.528122,-0.132292 -0.818024,-0.818555 c -1.484224,-1.48523 -1.318614,-3.858024 0.339507,-4.868952 0.815954,-0.497491 1.337301,-0.528201 8.943589,-0.529167 0,0 5.773076,-0.07469 8.26005,0.309243 0.939025,0.144964 2.26845,1.144865 2.26845,1.144865 2.469315,1.46612 3.521329,1.738532 4.562483,1.181323 0.32793,-0.175499 0.51211,-0.553403 0.51211,-1.052132 0,-0.86093 -0.545217,-1.320644 -2.180728,-1.839164 -0.544477,-0.172619 -1.735091,-0.870471 -2.645825,-1.55081 0,0 -1.642528,-1.179505 -2.331153,-1.200622 -3.145112,-0.09645 -10.549125,-0.110921 -10.549125,-0.110921 -3.104762,-0.02061 -5.39951,-0.04024 -7.129241,-0.02946 z m -23.634075,6.928776 c 0.006,0.0038 0.0131,0.0081 0.0186,0.01188 0.002,7.4e-5 0.003,2.54e-4 0.007,5.29e-4 -0.008,-0.0043 -0.0169,-0.0083 -0.0253,-0.01241 z m 5.23686,1.619539 c -0.002,-0.0011 -0.003,0.0077 -0.006,0.01654 0.003,2.04e-4 0.006,2.54e-4 0.008,5.29e-4 -1.6e-4,-0.0024 -2.6e-4,-0.0048 -5.3e-4,-0.0072 -5.3e-4,-0.0061 -10e-4,-0.0092 -0.002,-0.0098 z M 43.141894,55.533733 c -0.0737,0.01177 -0.14751,0.02302 -0.22117,0.03514 -0.0111,0.005 -0.022,0.0099 -0.0331,0.01497 0.0806,-0.008 0.19359,-0.02257 0.24753,-0.04031 0.003,-7.94e-4 0.004,-0.0074 0.007,-0.0098 z"
       sodipodi:nodetypes="ccccccscsssssssssssczssczczcssscsscscssscscccccccccccccccccccc" />
    <path
       id="path928"
       style="fill:#2d3e50;fill-opacity:1;stroke:none;stroke-width:0.999999"
       transform="scale(0.26458333)"
       d="m 84.680358,129.24749 c -4.613984,1.16292 -7.884678,2.68874 -7.884678,2.68874 -7.491001,4.29352 -6.85818,3.98505 -6.85818,40.97588 0,36.24019 -0.17107,35.19545 6.433594,39.27734 1.889246,1.16765 5.378289,2.5054 7.751953,2.97266 2.373668,0.46722 18.522093,0.89851 35.884763,0.95898 35.32318,0.12261 36.23671,-0.005 50.21875,-7.03515 10.872,-5.46633 27.22516,-15.26177 33.375,-19.99219 5.78107,-4.44677 8.3411,-9.40231 8.33203,-16.13281 -0.009,-6.46473 -1.70826,-11.20855 -5.26562,-14.70703 -3.71384,-3.65235 -31.32425,-20.51515 -41.42383,-25.29883 0,0 -1.78497,-0.82796 -6.66865,-2.81063 -4.88367,-1.98267 -12.35025,-1.72492 -34.98115,-1.72492 -22.63091,0 -34.299999,-0.33496 -38.913982,0.82796 z m 32.518862,12.03571 c 3.83915,0.004 8.82951,0.0619 15.45898,0.13868 0,0 21.4522,-0.29173 26.7793,1.13655 5.3271,1.42829 5.5,2.26579 5.5,2.26579 27.23864,15.32084 26,13.99319 26,27.85351 0,9.82371 -0.0957,10.26675 -2.75,12.70704 -2.9208,2.68535 -15.55979,10.56306 -23.55273,14.67968 -6.02561,3.10341 -17.19993,3.93457 -23.19727,1.72657 -4.39303,-1.61734 -5.7564,-3.07013 -11.51172,-12.26368 -4.6697,-7.45939 -8.59503,-9.74422 -18.48828,-10.76367 -8.04627,-0.82915 -15.281416,-3.6082 -18.605469,-7.14648 -2.117367,-2.25377 -2.285785,-3.24026 -2.082031,-12.16992 0.252831,-11.0809 0.579428,-11.608 9.9082,-15.92188 3.87722,-1.79283 5.02357,-2.25376 16.54102,-2.24219 z m -1.53711,108.27344 c 0.23641,0.41255 0.47534,0.83609 0.70117,1.20703 0.0511,-0.0906 0.11192,-0.19334 0.18555,-0.31055 -0.20734,-0.25592 -0.41069,-0.51489 -0.61719,-0.77148 -0.0898,-0.0416 -0.17945,-0.084 -0.26953,-0.125 z m 1.66406,1.86328 c -0.12691,0.0756 -0.25477,0.14625 -0.38281,0.2168 0.39901,0.53205 0.73625,0.78258 0.96289,0.49609 -0.19343,-0.23742 -0.38676,-0.47538 -0.58008,-0.71289 z"
       sodipodi:nodetypes="zcsssccscsczzzcczcssssssssccccccccccc" />
    <text
       xml:space="preserve"
       style="font-style:normal;font-weight:normal;font-size:6.35px;line-height:1.25;font-family:sans-serif;letter-spacing:0.545042px;fill:#2d3e50;fill-opacity:1;stroke:none;stroke-width:0.264583"
       x="33.226116"
       y="28.902336"
       id="text8034"><tspan
         sodipodi:role="line"
         id="tspan8032"
         style="font-style:normal;font-variant:normal;font-weight:normal;font-stretch:normal;font-size:6.35px;font-family:Calibri;-inkscape-font-specification:Calibri;fill:#2d3e50;fill-opacity:1;stroke-width:0.264583"
         x="33.226116"
         y="28.902336">Servicios de GPS</tspan></text>
    <text
       xml:space="preserve"
       style="font-style:normal;font-weight:normal;font-size:6.35px;line-height:1.25;font-family:sans-serif;letter-spacing:0.545042px;fill:#2d3e50;fill-opacity:1;stroke:none;stroke-width:0.264583"
       x="37.748268"
       y="64.614128"
       id="text8034-6"><tspan
         sodipodi:role="line"
         id="tspan8032-1"
         style="font-style:normal;font-variant:normal;font-weight:normal;font-stretch:normal;font-size:6.35px;font-family:Calibri;-inkscape-font-specification:Calibri;fill:#2d3e50;fill-opacity:1;stroke-width:0.264583"
         x="37.748268"
         y="64.614128">www.deese.cl</tspan></text>
  </g>
</svg>
